<svg xmlns="http://www.w3.org/2000/svg" viewBox="0 0 64 64" id="user-profile">
  <g>
    <path fill="#50d9d7" d="M60,3V42H2V3A3,3,0,0,1,5,0H57A3,3,0,0,1,60,3Z"></path>
    <path fill="#00bebd" d="M62,43v2a3,3,0,0,1-3,3H3a3,3,0,0,1-3-3V43a1,1,0,0,1,1-1H61A1,1,0,0,1,62,43Z"></path>
    <path fill="#93e6e5" d="M58,3V7H20L16,2H57A1,1,0,0,1,58,3Z"></path>
    <path fill="#fff" d="M58,7V40H4V3A1,1,0,0,1,5,2H19.08A4,4,0,0,1,22.2,3.5c1,1.3.67.84,1.6,2A4,4,0,0,0,26.92,7Z"></path>
    <rect width="22" height="2" x="32" y="13" fill="#d9d9d9"></rect>
    <rect width="22" height="2" x="32" y="18" fill="#d9d9d9"></rect>
    <path fill="#f3f3f3" d="M58,16V40H32V25H54V23H32.06a7.91,7.91,0,0,1,1-3H54V18H34.72A8,8,0,0,1,40,16Z"></path>
    <path fill="#f3f3f3" d="M54,23v2H32a14.64,14.64,0,0,1,.06-2Z"></path>
    <rect width="22" height="2" x="32" y="23" fill="#c8c8c8"></rect>
    <rect width="12" height="2" x="32" y="28" fill="#c8c8c8"></rect>
    <path fill="#fff" d="M39,42a2,2,0,0,1-2,2H25a2,2,0,0,1-2-2Z"></path>
    <path fill="#00bebd" d="M60,16.25V42H32V40H58V16A8.24,8.24,0,0,1,60,16.25Z"></path>
    <path fill="#00aaa8" d="M62,43v2a3,3,0,0,1-3,3H32V44h5a2,2,0,0,0,2-2H61A1,1,0,0,1,62,43Z"></path>
    <path fill="#f3f3f3" d="M39,42a2,2,0,0,1-2,2H32V42Z"></path>
    <path fill="#c8c8c8" d="M54,18v2H33.08a7.9,7.9,0,0,1,1.64-2Z"></path>
    <rect width="30" height="46" x="34" y="18" fill="#50d9d7" rx="6"></rect>
    <path fill="#fff" d="M53.5,22a1.82,1.82,0,0,1-1.62,1H46.12a1.82,1.82,0,0,1-1.62-1,1.82,1.82,0,0,0-1.62-1H41a4,4,0,0,0-4,4V56a4,4,0,0,0,4,4H57a4,4,0,0,0,4-4V25a4,4,0,0,0-4-4H55.12A1.82,1.82,0,0,0,53.5,22Z"></path>
    <circle cx="18" cy="23" r="10" fill="#ffac00"></circle>
    <path fill="#ea9706" d="M25.19,26.5a8,8,0,0,1-14.38,0A8,8,0,0,1,25.19,26.5Z"></path>
    <circle cx="18" cy="20" r="4" fill="#ea9706"></circle>
    <circle cx="20" cy="5" r="1" fill="#00bebd"></circle>
    <circle cx="49" cy="34" r="8" fill="#ffac00"></circle>
    <path fill="#ea9706" d="M54.42,36.57a6,6,0,0,1-10.84,0A7,7,0,0,1,54.42,36.57Z"></path>
    <circle cx="49" cy="32" r="3" fill="#ea9706"></circle>
    <rect width="4" height="2" x="40" y="45" fill="#d9d9d9"></rect>
    <rect width="11" height="2" x="47" y="45" fill="#d9d9d9"></rect>
    <rect width="4" height="2" x="40" y="49" fill="#d9d9d9"></rect>
    <rect width="11" height="2" x="47" y="49" fill="#d9d9d9"></rect>
    <path fill="#ffac00" d="M31,58H27a3,3,0,0,1-3-3V51a1,1,0,0,1,2,0v4a1,1,0,0,0,1,1h4a1,1,0,0,1,0,2Z"></path>
  </g>
</svg>
